# xmcd CD database file
#
# Track frame offsets:
#	150
#	14548
#	28086
#	42210
#	55409
#	68524
#	83093
#	94443
#	109729
#	123143
#	133586
#	144744
#	155829
#	168379
#
# Disc length: 2439 seconds
#
# Revision: 0
# Processed by: cddbd v1.5.2PL0 Copyright (c) Steve Scherf et al.
# Submitted via: CDex 1.70beta2
#
DISCID=c009850e
DTITLE=nat king cole - Giants of jazz
DYEAR=2003
DGENRE=Jazz
TTITLE0=unforgettable
TTITLE1=(get your kicks on) route 66
TTITLE2=sweet lorraine
TTITLE3=smoke gets in your eyes
TTITLE4=it's only a paper moon
TTITLE5=these foolish things
TTITLE6=yes sir, that's my baby
TTITLE7=don't blame me
TTITLE8=what is this things called love?
TTITLE9=sweet goergia brown
TTITLE10=you're the cream in my coffee
TTITLE11=straighten up and fly right
TTITLE12=my baby just cares for me
TTITLE13=mona lisa
EXTD=YEAR: 2003
EXTT0=
EXTT1=
EXTT2=
EXTT3=
EXTT4=
EXTT5=
EXTT6=
EXTT7=
EXTT8=
EXTT9=
EXTT10=
EXTT11=
EXTT12=
EXTT13=
PLAYORDER=
